<svg width="254" height="254" viewBox="0 0 254 254" fill="none" xmlns="http://www.w3.org/2000/svg">
<path d="M126.709 253.256C124.669 253.256 122.898 252.558 121.395 251.163C120 249.875 119.141 248.104 118.819 245.85C116.351 228.247 113.667 213.435 110.769 201.413C107.979 189.499 104.222 179.678 99.4992 171.95C94.7765 164.222 88.551 158.05 80.823 153.435C73.2022 148.819 63.4347 145.116 51.5206 142.326C39.7138 139.428 25.1163 136.852 7.72809 134.598C5.36673 134.383 3.48837 133.524 2.09302 132.022C0.697675 130.519 0 128.694 0 126.548C0 124.508 0.697675 122.737 2.09302 121.234C3.48837 119.732 5.36673 118.873 7.72809 118.658C25.1163 116.726 39.7675 114.419 51.6816 111.735C63.5958 109.052 73.4169 105.349 81.145 100.626C88.8731 95.9035 95.0985 89.6244 99.8212 81.789C104.544 73.9535 108.301 64.0251 111.091 52.0036C113.989 39.8748 116.565 24.9553 118.819 7.24509C119.141 5.09839 120 3.38104 121.395 2.09302C122.898 0.697675 124.669 0 126.709 0C128.855 0 130.626 0.697675 132.022 2.09302C133.417 3.38104 134.329 5.09839 134.759 7.24509C137.013 24.9553 139.535 39.8748 142.326 52.0036C145.224 64.0251 148.98 73.9535 153.596 81.789C158.319 89.6244 164.544 95.9035 172.272 100.626C180 105.349 189.821 109.052 201.735 111.735C213.65 114.419 228.354 116.726 245.85 118.658C248.104 118.873 249.929 119.732 251.324 121.234C252.719 122.737 253.417 124.508 253.417 126.548C253.417 128.694 252.719 130.519 251.324 132.022C249.929 133.524 248.104 134.383 245.85 134.598C228.354 136.53 213.65 138.837 201.735 141.521C189.821 144.204 180 147.907 172.272 152.63C164.544 157.245 158.319 163.471 153.596 171.306C148.98 179.141 145.224 189.124 142.326 201.252C139.535 213.381 137.013 228.247 134.759 245.85C134.329 248.104 133.417 249.875 132.022 251.163C130.626 252.558 128.855 253.256 126.709 253.256Z" fill="#48CBAB"/>
</svg>
