<svg width="124" height="124" viewBox="0 0 124 124" fill="none" xmlns="http://www.w3.org/2000/svg">
<path d="M61.9857 123.81C58.7657 123.81 56.941 122.039 56.5117 118.497C55.2237 107.764 53.8283 99.3382 52.3256 93.2201C50.9303 87.102 48.6226 82.5403 45.4025 79.5349C42.2898 76.4222 37.5671 74.0609 31.2344 72.4509C25.009 70.8408 16.4222 69.1235 5.47406 67.2988C1.82469 66.7621 0 64.9374 0 61.8247C0 58.8194 1.61002 57.0483 4.83006 56.5117C15.8855 54.365 24.5796 52.4866 30.9124 50.8766C37.2451 49.1592 42.0215 46.7979 45.2415 43.7925C48.4616 40.7872 50.8229 36.3328 52.3256 30.4294C53.8283 24.4186 55.2237 16.0465 56.5117 5.31306C56.941 1.77102 58.7657 0 61.9857 0C65.2058 0 67.0305 1.71735 67.4598 5.15206C68.8551 15.9929 70.2505 24.526 71.6459 30.7514C73.1485 36.9768 75.4562 41.6995 78.5689 44.9195C81.789 48.0322 86.5654 50.3399 92.8981 51.8426C99.2308 53.3453 107.979 54.9016 119.141 56.5117C120.537 56.619 121.664 57.1557 122.522 58.1217C123.488 59.0877 123.971 60.322 123.971 61.8247C123.971 64.8301 122.361 66.6548 119.141 67.2988C107.979 69.4455 99.2308 71.3775 92.8981 73.0949C86.6727 74.7049 81.95 77.0662 78.7299 80.1789C75.6172 83.1843 73.3095 87.6924 71.8068 93.7031C70.3042 99.7138 68.8551 108.086 67.4598 118.819C67.2451 120.215 66.6548 121.395 65.6888 122.361C64.7228 123.327 63.4884 123.81 61.9857 123.81Z" fill="#5B99EB"/>
</svg>
