<svg width="79" height="79" viewBox="0 0 79 79" fill="none" xmlns="http://www.w3.org/2000/svg">
<path d="M39.1235 78.4079C37.0841 78.4079 35.9034 77.3346 35.5814 75.1879C34.2934 68.6405 33.1664 63.4884 32.2004 59.7317C31.3417 55.975 29.9464 53.1306 28.0143 51.1986C26.1896 49.1592 23.3453 47.5492 19.4812 46.3685C15.6172 45.1879 10.1968 44.0072 3.22004 42.8265C1.07335 42.3972 0 41.1628 0 39.1235C0 37.1914 1.07335 36.0108 3.22004 35.5814C10.1968 34.2934 15.6172 33.1127 19.4812 32.0394C23.3453 30.8587 26.1896 29.3023 28.0143 27.3703C29.9464 25.331 31.3417 22.4329 32.2004 18.6762C33.1664 14.9195 34.2934 9.76745 35.5814 3.22004C35.9034 1.07335 37.0841 0 39.1235 0C41.0555 0 42.2362 1.07335 42.6655 3.22004C43.8462 9.76745 44.9195 14.9195 45.8855 18.6762C46.8516 22.4329 48.2469 25.331 50.0716 27.3703C52.0036 29.3023 54.9016 30.8587 58.7657 32.0394C62.6297 33.1127 68.0501 34.2934 75.0269 35.5814C77.1736 36.0108 78.2469 37.1914 78.2469 39.1235C78.2469 41.1628 77.1736 42.3972 75.0269 42.8265C68.0501 44.0072 62.6297 45.1879 58.7657 46.3685C54.9016 47.5492 52.0036 49.1592 50.0716 51.1986C48.2469 53.1306 46.8516 55.975 45.8855 59.7317C44.9195 63.4884 43.8462 68.6405 42.6655 75.1879C42.2362 77.3346 41.0555 78.4079 39.1235 78.4079Z" fill="#73AFEB"/>
</svg>
