<?xml version="1.0" encoding="UTF-8"?>
<svg height="600" width="800" xmlns="http://www.w3.org/2000/svg" xmlns:xlink="http://www.w3.org/1999/xlink">
    <g id="Notes" font-family="LucidaGrande, 'Lucida Grande', sans-serif" font-size="13">
        <rect fill="white" height="600.0" width="800.0" x="0.0" y="0.0" />
        <g font-size="13">
            <text x="18.0" y="176.0">Small</text>
            <text x="18.0" y="376.0">Medium</text>
            <text x="18.0" y="576.0">Large</text>
        </g>
        <g font-size="9">
            <text x="250.0" y="30.0">Ultralight</text>
            <text x="450.0" y="30.0">Regular</text>
            <text x="650.0" y="30.0">Black</text>
            <text id="template-version" fill="#505050" text-anchor="end" x="785.0" y="575.0">Template v.3.0</text>
            <a href="https://github.com/swhitty/SwiftDraw">
                <text fill="#505050" text-anchor="end" x="785.0" y="590.0">https://github.com/swhitty/SwiftDraw</text>
            </a>
        </g>
    </g>
    <g id="Guides" stroke="rgb(39, 170, 225)" stroke-width="0.5">
        <path id="Capline-S" d="M18,76 l800,0" />
        <path id="H-reference" d="M85,145.755 L87.685,145.755 L113.369,79.287 L114.052,79.287 L114.052,76 L112.148,76 L85,145.755 Z M95.693,121.536 L130.996,121.536 L130.263,119.313 L96.474,119.313 L95.693,121.536 Z M139.15,145.755 L141.787,145.755 L114.638,76 L113.466,76 L113.466,79.287 L139.15,145.755 Z" stroke="none" transform="translate(0,0)" />
        <path id="Baseline-S" d="M18,146 l800,0" />
        <path id="left-margin-Ultralight-S" d="M227.095,56 l0,110" />
        <path id="right-margin-Ultralight-S" d="M302.905,56 l0,110" />
        <path id="left-margin-Regular-S" d="M427.095,56 l0,110" />
        <path id="right-margin-Regular-S" d="M502.905,56 l0,110" />
        <path id="left-margin-Black-S" d="M627.095,56 l0,110" />
        <path id="right-margin-Black-S" d="M702.905,56 l0,110" />
        <path id="Capline-M" d="M18,276 l800,0" />
        <path id="Baseline-M" d="M18,346 l800,0" />
        <path id="Capline-L" d="M18,476 l800,0" />
        <path id="Baseline-L" d="M18,546 l800,0" />
    </g>
    <g id="Symbols">
        <g id="Ultralight-S" transform="translate(0,0)">
            <path d="M260.489,78.46 C260.489,78.748 260.276,78.993 259.991,79.039 C244.634,81.502 232.903,94.812 232.903,110.863 C232.903,128.665 247.334,143.096 265.136,143.096 C281.186,143.096 294.496,131.365 296.959,116.009 C297.005,115.724 297.25,115.511 297.538,115.511 L299.305,115.511 C299.655,115.511 299.926,115.821 299.874,116.168 C297.316,133.057 282.738,146 265.136,146 C245.73,146 229.999,130.269 229.999,110.863 C229.999,93.26 242.943,78.682 259.832,76.125 C260.179,76.072 260.489,76.343 260.489,76.694 L260.489,78.46 Z" />
            <path d="M260.489,91.811 C260.489,92.077 260.307,92.309 260.05,92.38 C251.933,94.608 245.97,102.039 245.97,110.863 C245.97,121.448 254.551,130.029 265.136,130.029 C273.959,130.029 281.389,124.066 283.618,115.951 C283.689,115.693 283.921,115.511 284.187,115.511 L285.996,115.511 C286.366,115.511 286.642,115.853 286.552,116.211 C284.162,125.816 275.48,132.933 265.136,132.933 C252.947,132.933 243.066,123.052 243.066,110.863 C243.066,100.518 250.184,91.836 259.789,89.446 C260.148,89.356 260.489,89.632 260.489,90.002 L260.489,91.811 Z" />
            <path d="M272.686,110.865 C272.686,115.035 269.305,118.415 265.136,118.415 C260.966,118.415 257.586,115.035 257.586,110.865 C257.586,106.695 260.966,103.315 265.136,103.315 C269.305,103.315 272.686,106.695 272.686,110.865 Z" />
            <path d="M265.136,80.375 C265.136,77.809 267.225,75.697 269.768,76.036 C272.79,76.438 275.753,77.232 278.582,78.404 C282.845,80.169 286.718,82.758 289.981,86.02 C293.244,89.283 295.832,93.156 297.598,97.419 C298.769,100.248 299.564,103.211 299.966,106.233 C300.304,108.777 298.192,110.866 295.626,110.866 L277.332,110.866 C277.332,104.13 271.871,98.669 265.136,98.669 L265.136,80.375 Z" />
        </g>
        <g id="Regular-S" transform="translate(0,0)">
            <path d="M460.489,78.46 C460.489,78.748 460.276,78.993 459.991,79.039 C444.634,81.502 432.903,94.812 432.903,110.863 C432.903,128.665 447.334,143.096 465.136,143.096 C481.186,143.096 494.496,131.365 496.959,116.009 C497.005,115.724 497.25,115.511 497.538,115.511 L499.305,115.511 C499.655,115.511 499.926,115.821 499.874,116.168 C497.316,133.057 482.738,146 465.136,146 C445.73,146 429.999,130.269 429.999,110.863 C429.999,93.26 442.943,78.682 459.832,76.125 C460.179,76.072 460.489,76.343 460.489,76.694 L460.489,78.46 Z" />
            <path d="M460.489,91.811 C460.489,92.077 460.307,92.309 460.05,92.38 C451.933,94.608 445.97,102.039 445.97,110.863 C445.97,121.448 454.551,130.029 465.136,130.029 C473.959,130.029 481.389,124.066 483.618,115.951 C483.689,115.693 483.921,115.511 484.187,115.511 L485.996,115.511 C486.366,115.511 486.642,115.853 486.552,116.211 C484.162,125.816 475.48,132.933 465.136,132.933 C452.947,132.933 443.066,123.052 443.066,110.863 C443.066,100.518 450.184,91.836 459.789,89.446 C460.148,89.356 460.489,89.632 460.489,90.002 L460.489,91.811 Z" />
            <path d="M472.686,110.865 C472.686,115.035 469.305,118.415 465.136,118.415 C460.966,118.415 457.586,115.035 457.586,110.865 C457.586,106.695 460.966,103.315 465.136,103.315 C469.305,103.315 472.686,106.695 472.686,110.865 Z" />
            <path d="M465.136,80.375 C465.136,77.809 467.225,75.697 469.768,76.036 C472.79,76.438 475.753,77.232 478.582,78.404 C482.845,80.169 486.718,82.758 489.981,86.02 C493.244,89.283 495.832,93.156 497.598,97.419 C498.769,100.248 499.564,103.211 499.966,106.233 C500.304,108.777 498.192,110.866 495.626,110.866 L477.332,110.866 C477.332,104.13 471.871,98.669 465.136,98.669 L465.136,80.375 Z" />
        </g>
        <g id="Black-S" transform="translate(0,0)">
            <path d="M660.489,78.46 C660.489,78.748 660.276,78.993 659.991,79.039 C644.635,81.502 632.903,94.812 632.903,110.863 C632.903,128.665 647.334,143.096 665.136,143.096 C681.186,143.096 694.496,131.365 696.96,116.009 C697.005,115.724 697.25,115.511 697.538,115.511 L699.305,115.511 C699.655,115.511 699.926,115.821 699.874,116.168 C697.316,133.057 682.738,146 665.136,146 C645.73,146 629.999,130.269 629.999,110.863 C629.999,93.26 642.943,78.682 659.832,76.125 C660.179,76.072 660.489,76.343 660.489,76.694 L660.489,78.46 Z" />
            <path d="M660.489,91.811 C660.489,92.077 660.307,92.309 660.05,92.38 C651.933,94.608 645.97,102.039 645.97,110.863 C645.97,121.448 654.551,130.029 665.136,130.029 C673.959,130.029 681.39,124.066 683.619,115.951 C683.689,115.693 683.921,115.511 684.187,115.511 L685.996,115.511 C686.366,115.511 686.642,115.853 686.552,116.211 C684.162,125.816 675.48,132.933 665.136,132.933 C652.947,132.933 643.066,123.052 643.066,110.863 C643.066,100.518 650.184,91.836 659.789,89.446 C660.148,89.356 660.489,89.632 660.489,90.002 L660.489,91.811 Z" />
            <path d="M672.686,110.865 C672.686,115.035 669.305,118.415 665.136,118.415 C660.966,118.415 657.586,115.035 657.586,110.865 C657.586,106.695 660.966,103.315 665.136,103.315 C669.305,103.315 672.686,106.695 672.686,110.865 Z" />
            <path d="M665.136,80.375 C665.136,77.809 667.225,75.697 669.768,76.036 C672.79,76.438 675.753,77.232 678.582,78.404 C682.845,80.169 686.718,82.758 689.981,86.02 C693.244,89.283 695.832,93.156 697.598,97.419 C698.77,100.248 699.564,103.211 699.966,106.233 C700.304,108.777 698.192,110.866 695.626,110.866 L677.332,110.866 C677.332,104.13 671.871,98.669 665.136,98.669 L665.136,80.375 Z" />
        </g>
    </g>
</svg>