<?xml version="1.0" encoding="UTF-8"?>
<svg height="600" width="800" xmlns="http://www.w3.org/2000/svg" xmlns:xlink="http://www.w3.org/1999/xlink">
    <g id="Notes" font-family="LucidaGrande, 'Lucida Grande', sans-serif" font-size="13">
        <rect fill="white" height="600.0" width="800.0" x="0.0" y="0.0" />
        <g font-size="13">
            <text x="18.0" y="176.0">Small</text>
            <text x="18.0" y="376.0">Medium</text>
            <text x="18.0" y="576.0">Large</text>
        </g>
        <g font-size="9">
            <text x="250.0" y="30.0">Ultralight</text>
            <text x="450.0" y="30.0">Regular</text>
            <text x="650.0" y="30.0">Black</text>
            <text id="template-version" fill="#505050" text-anchor="end" x="785.0" y="575.0">Template v.3.0</text>
            <a href="https://github.com/swhitty/SwiftDraw">
                <text fill="#505050" text-anchor="end" x="785.0" y="590.0">https://github.com/swhitty/SwiftDraw</text>
            </a>
        </g>
    </g>
    <g id="Guides" stroke="rgb(39, 170, 225)" stroke-width="0.5">
        <path id="Capline-S" d="M18,76 l800,0" />
        <path id="H-reference" d="M85,145.755 L87.685,145.755 L113.369,79.287 L114.052,79.287 L114.052,76 L112.148,76 L85,145.755 Z M95.693,121.536 L130.996,121.536 L130.263,119.313 L96.474,119.313 L95.693,121.536 Z M139.15,145.755 L141.787,145.755 L114.638,76 L113.466,76 L113.466,79.287 L139.15,145.755 Z" stroke="none" transform="translate(0,0)" />
        <path id="Baseline-S" d="M18,146 l800,0" />
        <path id="left-margin-Ultralight-S" d="M227.108,56 l0,110" />
        <path id="right-margin-Ultralight-S" d="M302.892,56 l0,110" />
        <path id="left-margin-Regular-S" d="M427.108,56 l0,110" />
        <path id="right-margin-Regular-S" d="M502.892,56 l0,110" />
        <path id="left-margin-Black-S" d="M627.108,56 l0,110" />
        <path id="right-margin-Black-S" d="M702.892,56 l0,110" />
        <path id="Capline-M" d="M18,276 l800,0" />
        <path id="Baseline-M" d="M18,346 l800,0" />
        <path id="Capline-L" d="M18,476 l800,0" />
        <path id="Baseline-L" d="M18,546 l800,0" />
    </g>
    <g id="Symbols">
        <g id="Ultralight-S" transform="translate(0,0)">
            <path d="M265,76 C269.596,76 274.147,76.905 278.394,78.664 C282.64,80.423 286.498,83.001 289.748,86.251 C292.998,89.501 295.576,93.359 297.335,97.606 C299.094,101.852 300,106.403 300,111 L265,111 L265,76 Z M269.05,106.95 L295.683,106.95 C295.331,104.278 294.63,101.657 293.594,99.155 C292.039,95.4 289.759,91.989 286.885,89.115 C284.011,86.241 280.599,83.961 276.844,82.405 C274.343,81.369 271.722,80.669 269.05,80.316 L269.05,106.95 Z" />
            <path d="M260.95,80.313 C245.771,82.297 234.05,95.28 234.05,111 C234.05,128.094 247.907,141.95 265,141.95 C280.721,141.95 293.703,130.23 295.687,115.05 L299.768,115.05 C297.76,132.472 282.96,146 265,146 C245.67,146 230,130.33 230,111 C230,93.04 243.528,78.24 260.95,76.233 L260.95,80.313 Z M260.95,93.526 C252.996,95.362 247.066,102.489 247.066,111 C247.066,120.905 255.095,128.934 265,128.934 C273.512,128.934 280.638,123.004 282.474,115.05 L286.61,115.05 C284.71,125.257 275.758,132.984 265,132.984 C252.859,132.984 243.017,123.142 243.017,111 C243.017,100.243 250.744,91.29 260.95,89.39 L260.95,93.526 Z" />
            <path d="M257.479,111 C257.479,106.846 260.846,103.479 265,103.479 C269.154,103.479 272.521,106.846 272.521,111 C272.521,115.153 269.154,118.52 265,118.52 C260.846,118.52 257.479,115.153 257.479,111 Z" />
        </g>
        <g id="Regular-S" transform="translate(0,0)">
            <path d="M465,76 C469.596,76 474.147,76.905 478.394,78.664 C482.64,80.423 486.498,83.001 489.748,86.251 C492.998,89.501 495.576,93.359 497.335,97.606 C499.094,101.852 500,106.403 500,111 L465,111 L465,76 Z M469.05,106.95 L495.683,106.95 C495.331,104.278 494.63,101.657 493.594,99.155 C492.039,95.4 489.759,91.989 486.885,89.115 C484.011,86.241 480.599,83.961 476.844,82.405 C474.343,81.369 471.722,80.669 469.05,80.316 L469.05,106.95 Z" />
            <path d="M460.95,80.313 C445.771,82.297 434.05,95.28 434.05,111 C434.05,128.094 447.907,141.95 465,141.95 C480.721,141.95 493.703,130.23 495.687,115.05 L499.768,115.05 C497.76,132.472 482.96,146 465,146 C445.67,146 430,130.33 430,111 C430,93.04 443.528,78.24 460.95,76.233 L460.95,80.313 Z M460.95,93.526 C452.996,95.362 447.066,102.489 447.066,111 C447.066,120.905 455.096,128.934 465,128.934 C473.512,128.934 480.638,123.004 482.474,115.05 L486.61,115.05 C484.71,125.257 475.758,132.984 465,132.984 C452.859,132.984 443.017,123.142 443.017,111 C443.017,100.243 450.744,91.29 460.95,89.39 L460.95,93.526 Z" />
            <path d="M457.479,111 C457.479,106.846 460.847,103.479 465,103.479 C469.154,103.479 472.521,106.846 472.521,111 C472.521,115.153 469.154,118.52 465,118.52 C460.847,118.52 457.479,115.153 457.479,111 Z" />
        </g>
        <g id="Black-S" transform="translate(0,0)">
            <path d="M665,76 C669.596,76 674.147,76.905 678.394,78.664 C682.64,80.423 686.498,83.001 689.748,86.251 C692.998,89.501 695.576,93.359 697.335,97.606 C699.094,101.852 700,106.403 700,111 L665,111 L665,76 Z M669.049,106.95 L695.683,106.95 C695.331,104.278 694.63,101.657 693.594,99.155 C692.039,95.4 689.759,91.989 686.885,89.115 C684.011,86.241 680.599,83.961 676.844,82.405 C674.343,81.369 671.722,80.669 669.049,80.316 L669.049,106.95 Z" />
            <path d="M660.95,80.313 C645.771,82.297 634.05,95.28 634.05,111 C634.05,128.094 647.907,141.95 665,141.95 C680.721,141.95 693.703,130.23 695.687,115.05 L699.768,115.05 C697.76,132.472 682.96,146 665,146 C645.67,146 630,130.33 630,111 C630,93.04 643.528,78.24 660.95,76.233 L660.95,80.313 Z M660.95,93.526 C652.996,95.362 647.066,102.489 647.066,111 C647.066,120.905 655.095,128.934 665,128.934 C673.512,128.934 680.638,123.004 682.474,115.05 L686.61,115.05 C684.71,125.257 675.758,132.984 665,132.984 C652.859,132.984 643.017,123.142 643.017,111 C643.017,100.243 650.744,91.29 660.95,89.39 L660.95,93.526 Z" />
            <path d="M657.479,111 C657.479,106.846 660.846,103.479 665,103.479 C669.154,103.479 672.521,106.846 672.521,111 C672.521,115.153 669.154,118.52 665,118.52 C660.846,118.52 657.479,115.153 657.479,111 Z" />
        </g>
    </g>
</svg>